<?xml version="1.0" encoding="UTF-8" standalone="no"?>
<!DOCTYPE svg PUBLIC "-//W3C//DTD SVG 1.1//EN"
 "http://www.w3.org/Graphics/SVG/1.1/DTD/svg11.dtd">
<!-- Generated by graphviz version 14.0.4 (20251115.1723)
 -->
<!-- Title: Create a microservices platform with Kubernetes and messaging Pages: 1 -->
<svg width="2535pt" height="1084pt"
 viewBox="0.00 0.00 2535.00 1084.00" xmlns="http://www.w3.org/2000/svg" xmlns:xlink="http://www.w3.org/1999/xlink">
<g id="graph0" class="graph" transform="scale(1 1) rotate(0) translate(36 1048.2)">
<title>Create a microservices platform with Kubernetes and messaging</title>
<polygon fill="white" stroke="none" points="-36,36 -36,-1048.2 2499,-1048.2 2499,36 -36,36"/>
<text xml:space="preserve" text-anchor="middle" x="1231.5" y="-5.15" font-family="Sans-Serif" font-size="13.00" fill="#2d3436">Create a microservices platform with Kubernetes and messaging</text>
<g id="clust1" class="cluster">
<title>cluster_Frontend Layer</title>
<path fill="#bbdefb" stroke="#aeb6be" d="M1785,-804.4C1785,-804.4 2074,-804.4 2074,-804.4 2080,-804.4 2086,-810.4 2086,-816.4 2086,-816.4 2086,-992.2 2086,-992.2 2086,-998.2 2080,-1004.2 2074,-1004.2 2074,-1004.2 1785,-1004.2 1785,-1004.2 1779,-1004.2 1773,-998.2 1773,-992.2 1773,-992.2 1773,-816.4 1773,-816.4 1773,-810.4 1779,-804.4 1785,-804.4"/>
<text xml:space="preserve" text-anchor="middle" x="1826.75" y="-986.9" font-family="Sans-Serif" font-size="14.00" fill="#2d3436">Frontend Layer</text>
</g>
<g id="clust2" class="cluster">
<title>cluster_Application Layer</title>
<path fill="#ffe0b2" stroke="#aeb6be" d="M969,-287.8C969,-287.8 1530,-287.8 1530,-287.8 1536,-287.8 1542,-293.8 1542,-299.8 1542,-299.8 1542,-733.9 1542,-733.9 1542,-739.9 1536,-745.9 1530,-745.9 1530,-745.9 969,-745.9 969,-745.9 963,-745.9 957,-739.9 957,-733.9 957,-733.9 957,-299.8 957,-299.8 957,-293.8 963,-287.8 969,-287.8"/>
<text xml:space="preserve" text-anchor="middle" x="1016.75" y="-728.6" font-family="Sans-Serif" font-size="14.00" fill="#2d3436">Application Layer</text>
</g>
<g id="clust3" class="cluster">
<title>cluster_Messaging Layer</title>
<path fill="#e1bee7" stroke="#aeb6be" d="M20,-29.5C20,-29.5 136,-29.5 136,-29.5 142,-29.5 148,-35.5 148,-41.5 148,-41.5 148,-217.3 148,-217.3 148,-223.3 142,-229.3 136,-229.3 136,-229.3 20,-229.3 20,-229.3 14,-229.3 8,-223.3 8,-217.3 8,-217.3 8,-41.5 8,-41.5 8,-35.5 14,-29.5 20,-29.5"/>
<text xml:space="preserve" text-anchor="middle" x="67.75" y="-212" font-family="Sans-Serif" font-size="14.00" fill="#2d3436">Messaging Layer</text>
</g>
<g id="clust4" class="cluster">
<title>cluster_Data Layer</title>
<path fill="#f8bbd0" stroke="#aeb6be" d="M373,-29.5C373,-29.5 835,-29.5 835,-29.5 841,-29.5 847,-35.5 847,-41.5 847,-41.5 847,-217.3 847,-217.3 847,-223.3 841,-229.3 835,-229.3 835,-229.3 373,-229.3 373,-229.3 367,-229.3 361,-223.3 361,-217.3 361,-217.3 361,-41.5 361,-41.5 361,-35.5 367,-29.5 373,-29.5"/>
<text xml:space="preserve" text-anchor="middle" x="402" y="-212" font-family="Sans-Serif" font-size="14.00" fill="#2d3436">Data Layer</text>
</g>
<g id="clust5" class="cluster">
<title>cluster_Security Layer</title>
<path fill="#e0e0e0" stroke="#aeb6be" d="M1054,-29.5C1054,-29.5 1343,-29.5 1343,-29.5 1349,-29.5 1355,-35.5 1355,-41.5 1355,-41.5 1355,-217.3 1355,-217.3 1355,-223.3 1349,-229.3 1343,-229.3 1343,-229.3 1054,-229.3 1054,-229.3 1048,-229.3 1042,-223.3 1042,-217.3 1042,-217.3 1042,-41.5 1042,-41.5 1042,-35.5 1048,-29.5 1054,-29.5"/>
<text xml:space="preserve" text-anchor="middle" x="1093.12" y="-212" font-family="Sans-Serif" font-size="14.00" fill="#2d3436">Security Layer</text>
</g>
<g id="clust6" class="cluster">
<title>cluster_Monitoring Layer</title>
<path fill="#b2ebf2" stroke="#aeb6be" d="M1825,-29.5C1825,-29.5 1941,-29.5 1941,-29.5 1947,-29.5 1953,-35.5 1953,-41.5 1953,-41.5 1953,-217.3 1953,-217.3 1953,-223.3 1947,-229.3 1941,-229.3 1941,-229.3 1825,-229.3 1825,-229.3 1819,-229.3 1813,-223.3 1813,-217.3 1813,-217.3 1813,-41.5 1813,-41.5 1813,-35.5 1819,-29.5 1825,-29.5"/>
<text xml:space="preserve" text-anchor="middle" x="1871.62" y="-212" font-family="Sans-Serif" font-size="14.00" fill="#2d3436">Monitoring Layer</text>
</g>
<g id="clust7" class="cluster">
<title>cluster_Infrastructure Layer</title>
<path fill="#d1c4e9" stroke="#aeb6be" d="M2131,-804.4C2131,-804.4 2247,-804.4 2247,-804.4 2253,-804.4 2259,-810.4 2259,-816.4 2259,-816.4 2259,-992.2 2259,-992.2 2259,-998.2 2253,-1004.2 2247,-1004.2 2247,-1004.2 2131,-1004.2 2131,-1004.2 2125,-1004.2 2119,-998.2 2119,-992.2 2119,-992.2 2119,-816.4 2119,-816.4 2119,-810.4 2125,-804.4 2131,-804.4"/>
<text xml:space="preserve" text-anchor="middle" x="2185.5" y="-986.9" font-family="Sans-Serif" font-size="14.00" fill="#2d3436">Infrastructure Layer</text>
</g>
<!-- 988c969d0cbb4b8d86d2bf6cba1f2ea8 -->
<g id="node1" class="node">
<title>988c969d0cbb4b8d86d2bf6cba1f2ea8</title>
<image xlink:href="/Users/kumam/Documents/GitHub/AaaS/webapp/venv/lib/python3.13/site-packages/resources/azure/network/application-gateway.png" width="100.8px" height="100.8px" preserveAspectRatio="xMinYMin meet" x="1792.6" y="-943.2"/>
<text xml:space="preserve" text-anchor="middle" x="1843" y="-825.55" font-family="Sans-Serif" font-size="13.00" fill="#2d3436">Application Gateway with WAF</text>
</g>
<!-- 0f8f8fe3e2c34b3cb15f95252d408fce -->
<g id="node3" class="node">
<title>0f8f8fe3e2c34b3cb15f95252d408fce</title>
<image xlink:href="/Users/kumam/Documents/GitHub/AaaS/webapp/venv/lib/python3.13/site-packages/resources/azure/integration/api-management.png" width="100.8px" height="100.8px" preserveAspectRatio="xMinYMin meet" x="1421.6" y="-684.9"/>
<text xml:space="preserve" text-anchor="middle" x="1472" y="-567.25" font-family="Sans-Serif" font-size="13.00" fill="#2d3436">API Management</text>
</g>
<!-- 988c969d0cbb4b8d86d2bf6cba1f2ea8&#45;&gt;0f8f8fe3e2c34b3cb15f95252d408fce -->
<g id="edge1" class="edge">
<title>988c969d0cbb4b8d86d2bf6cba1f2ea8&#45;&gt;0f8f8fe3e2c34b3cb15f95252d408fce</title>
<path fill="none" stroke="#7b8894" stroke-width="2" d="M1812.6,-824.59C1812.6,-758.6 1812.6,-668.5 1812.6,-668.5 1812.6,-668.5 1535.28,-668.5 1535.28,-668.5"/>
<polygon fill="#7b8894" stroke="#7b8894" stroke-width="2" points="1535.28,-665 1525.28,-668.5 1535.28,-672 1535.28,-665"/>
<text xml:space="preserve" text-anchor="middle" x="1682" y="-758.05" font-family="Sans-Serif" font-size="13.00" fill="#2d3436">Routes web traffic</text>
</g>
<!-- 56464c7fa7a84f868e23ffc499f874b4 -->
<g id="node4" class="node">
<title>56464c7fa7a84f868e23ffc499f874b4</title>
<image xlink:href="/Users/kumam/Documents/GitHub/AaaS/webapp/venv/lib/python3.13/site-packages/resources/azure/integration/api-management.png" width="100.8px" height="100.8px" preserveAspectRatio="xMinYMin meet" x="1248.6" y="-684.9"/>
<text xml:space="preserve" text-anchor="middle" x="1299" y="-567.25" font-family="Sans-Serif" font-size="13.00" fill="#2d3436">API Management</text>
</g>
<!-- 988c969d0cbb4b8d86d2bf6cba1f2ea8&#45;&gt;56464c7fa7a84f868e23ffc499f874b4 -->
<g id="edge2" class="edge">
<title>988c969d0cbb4b8d86d2bf6cba1f2ea8&#45;&gt;56464c7fa7a84f868e23ffc499f874b4</title>
<path fill="none" stroke="#7b8894" stroke-width="2" d="M1792.74,-892.5C1655.09,-892.5 1282.2,-892.5 1282.2,-892.5 1282.2,-892.5 1282.2,-715.65 1282.2,-715.65"/>
<polygon fill="#7b8894" stroke="#7b8894" stroke-width="2" points="1285.7,-715.65 1282.2,-705.65 1278.7,-715.65 1285.7,-715.65"/>
<text xml:space="preserve" text-anchor="middle" x="1382" y="-758.05" font-family="Sans-Serif" font-size="13.00" fill="#2d3436">Routes web traffic</text>
</g>
<!-- 656a60666d994bac8b336a59964a3482 -->
<g id="node12" class="node">
<title>656a60666d994bac8b336a59964a3482</title>
<image xlink:href="/Users/kumam/Documents/GitHub/AaaS/webapp/venv/lib/python3.13/site-packages/resources/azure/devops/application-insights.png" width="100.8px" height="100.8px" preserveAspectRatio="xMinYMin meet" x="1832.6" y="-168.3"/>
<text xml:space="preserve" text-anchor="middle" x="1883" y="-50.65" font-family="Sans-Serif" font-size="13.00" fill="#2d3436">Application Insights</text>
</g>
<!-- 988c969d0cbb4b8d86d2bf6cba1f2ea8&#45;&gt;656a60666d994bac8b336a59964a3482 -->
<g id="edge13" class="edge">
<title>988c969d0cbb4b8d86d2bf6cba1f2ea8&#45;&gt;656a60666d994bac8b336a59964a3482</title>
<path fill="none" stroke="#7b8894" stroke-width="2" d="M1878.2,-824.71C1878.2,-824.71 1878.2,-199.14 1878.2,-199.14"/>
<polygon fill="#7b8894" stroke="#7b8894" stroke-width="2" points="1881.7,-199.14 1878.2,-189.14 1874.7,-199.14 1881.7,-199.14"/>
<text xml:space="preserve" text-anchor="middle" x="2152" y="-499.75" font-family="Sans-Serif" font-size="13.00" fill="#2d3436">Sends frontend telemetry</text>
</g>
<!-- 5d20f45c21e148f49e80e8a037127e79 -->
<g id="node2" class="node">
<title>5d20f45c21e148f49e80e8a037127e79</title>
<image xlink:href="/Users/kumam/Documents/GitHub/AaaS/webapp/venv/lib/python3.13/site-packages/resources/azure/network/application-gateway.png" width="100.8px" height="100.8px" preserveAspectRatio="xMinYMin meet" x="1965.6" y="-943.2"/>
<text xml:space="preserve" text-anchor="middle" x="2016" y="-825.55" font-family="Sans-Serif" font-size="13.00" fill="#2d3436">Application Gateway with WAF</text>
</g>
<!-- 5d20f45c21e148f49e80e8a037127e79&#45;&gt;0f8f8fe3e2c34b3cb15f95252d408fce -->
<g id="edge3" class="edge">
<title>5d20f45c21e148f49e80e8a037127e79&#45;&gt;0f8f8fe3e2c34b3cb15f95252d408fce</title>
<path fill="none" stroke="#7b8894" stroke-width="2" d="M2032.8,-824.6C2032.8,-748.07 2032.8,-634.5 2032.8,-634.5 2032.8,-634.5 1535.29,-634.5 1535.29,-634.5"/>
<polygon fill="#7b8894" stroke="#7b8894" stroke-width="2" points="1535.29,-631 1525.29,-634.5 1535.29,-638 1535.29,-631"/>
<text xml:space="preserve" text-anchor="middle" x="2217" y="-758.05" font-family="Sans-Serif" font-size="13.00" fill="#2d3436">Routes web traffic</text>
</g>
<!-- 5d20f45c21e148f49e80e8a037127e79&#45;&gt;56464c7fa7a84f868e23ffc499f874b4 -->
<g id="edge4" class="edge">
<title>5d20f45c21e148f49e80e8a037127e79&#45;&gt;56464c7fa7a84f868e23ffc499f874b4</title>
<path fill="none" stroke="#7b8894" stroke-width="2" d="M1999.2,-824.74C1999.2,-793.59 1999.2,-763.5 1999.2,-763.5 1999.2,-763.5 1315.8,-763.5 1315.8,-763.5 1315.8,-763.5 1315.8,-715.8 1315.8,-715.8"/>
<polygon fill="#7b8894" stroke="#7b8894" stroke-width="2" points="1319.3,-715.8 1315.8,-705.8 1312.3,-715.8 1319.3,-715.8"/>
<text xml:space="preserve" text-anchor="middle" x="1924" y="-758.05" font-family="Sans-Serif" font-size="13.00" fill="#2d3436">Routes web traffic</text>
</g>
<!-- 5d20f45c21e148f49e80e8a037127e79&#45;&gt;656a60666d994bac8b336a59964a3482 -->
<g id="edge14" class="edge">
<title>5d20f45c21e148f49e80e8a037127e79&#45;&gt;656a60666d994bac8b336a59964a3482</title>
<path fill="none" stroke="#7b8894" stroke-width="2" d="M1965.6,-892.5C1939.65,-892.5 1913.4,-892.5 1913.4,-892.5 1913.4,-892.5 1913.4,-198.99 1913.4,-198.99"/>
<polygon fill="#7b8894" stroke="#7b8894" stroke-width="2" points="1916.9,-198.99 1913.4,-188.99 1909.9,-198.99 1916.9,-198.99"/>
<text xml:space="preserve" text-anchor="middle" x="2388" y="-499.75" font-family="Sans-Serif" font-size="13.00" fill="#2d3436">Sends frontend telemetry</text>
</g>
<!-- 33a248f2885c45f893a1bd7f3429cb8b -->
<g id="node5" class="node">
<title>33a248f2885c45f893a1bd7f3429cb8b</title>
<image xlink:href="/Users/kumam/Documents/GitHub/AaaS/webapp/venv/lib/python3.13/site-packages/resources/azure/compute/container-instances.png" width="100.8px" height="100.8px" preserveAspectRatio="xMinYMin meet" x="987.6" y="-426.6"/>
<text xml:space="preserve" text-anchor="middle" x="1038" y="-308.95" font-family="Sans-Serif" font-size="13.00" fill="#2d3436">Azure Kubernetes Service (AKS)</text>
</g>
<!-- 0f8f8fe3e2c34b3cb15f95252d408fce&#45;&gt;33a248f2885c45f893a1bd7f3429cb8b -->
<g id="edge5" class="edge">
<title>0f8f8fe3e2c34b3cb15f95252d408fce&#45;&gt;33a248f2885c45f893a1bd7f3429cb8b</title>
<path fill="none" stroke="#7b8894" stroke-width="2" d="M1472,-566.25C1472,-493.76 1472,-389.5 1472,-389.5 1472,-389.5 1101.24,-389.5 1101.24,-389.5"/>
<polygon fill="#7b8894" stroke="#7b8894" stroke-width="2" points="1101.24,-386 1091.24,-389.5 1101.24,-393 1101.24,-386"/>
<text xml:space="preserve" text-anchor="middle" x="1423" y="-499.75" font-family="Sans-Serif" font-size="13.00" fill="#2d3436">Routes API calls to microservices</text>
</g>
<!-- 0f8f8fe3e2c34b3cb15f95252d408fce&#45;&gt;656a60666d994bac8b336a59964a3482 -->
<g id="edge15" class="edge">
<title>0f8f8fe3e2c34b3cb15f95252d408fce&#45;&gt;656a60666d994bac8b336a59964a3482</title>
<path fill="none" stroke="#7b8894" stroke-width="2" d="M1522.32,-600.5C1627.92,-600.5 1863,-600.5 1863,-600.5 1863,-600.5 1863,-199.3 1863,-199.3"/>
<polygon fill="#7b8894" stroke="#7b8894" stroke-width="2" points="1866.5,-199.3 1863,-189.3 1859.5,-199.3 1866.5,-199.3"/>
<text xml:space="preserve" text-anchor="middle" x="1970.38" y="-370.6" font-family="Sans-Serif" font-size="13.00" fill="#2d3436">Sends API gateway telemetry</text>
</g>
<!-- 56464c7fa7a84f868e23ffc499f874b4&#45;&gt;33a248f2885c45f893a1bd7f3429cb8b -->
<g id="edge6" class="edge">
<title>56464c7fa7a84f868e23ffc499f874b4&#45;&gt;33a248f2885c45f893a1bd7f3429cb8b</title>
<path fill="none" stroke="#7b8894" stroke-width="2" d="M1292,-566.14C1292,-502.53 1292,-417.5 1292,-417.5 1292,-417.5 1101.21,-417.5 1101.21,-417.5"/>
<polygon fill="#7b8894" stroke="#7b8894" stroke-width="2" points="1101.21,-414 1091.21,-417.5 1101.21,-421 1101.21,-414"/>
<text xml:space="preserve" text-anchor="middle" x="1148" y="-499.75" font-family="Sans-Serif" font-size="13.00" fill="#2d3436">Routes API calls to microservices</text>
</g>
<!-- 56464c7fa7a84f868e23ffc499f874b4&#45;&gt;656a60666d994bac8b336a59964a3482 -->
<g id="edge16" class="edge">
<title>56464c7fa7a84f868e23ffc499f874b4&#45;&gt;656a60666d994bac8b336a59964a3482</title>
<path fill="none" stroke="#7b8894" stroke-width="2" d="M1342.4,-566.11C1342.4,-425.6 1342.4,-117.5 1342.4,-117.5 1342.4,-117.5 1819.6,-117.5 1819.6,-117.5"/>
<polygon fill="#7b8894" stroke="#7b8894" stroke-width="2" points="1819.6,-121 1829.6,-117.5 1819.6,-114 1819.6,-121"/>
<text xml:space="preserve" text-anchor="middle" x="1651.38" y="-370.6" font-family="Sans-Serif" font-size="13.00" fill="#2d3436">Sends API gateway telemetry</text>
</g>
<!-- b90523e5e68747f0bb610006b53915ea -->
<g id="node6" class="node">
<title>b90523e5e68747f0bb610006b53915ea</title>
<image xlink:href="/Users/kumam/Documents/GitHub/AaaS/webapp/venv/lib/python3.13/site-packages/resources/azure/integration/service-bus.png" width="100.8px" height="100.8px" preserveAspectRatio="xMinYMin meet" x="27.6" y="-168.3"/>
<text xml:space="preserve" text-anchor="middle" x="78" y="-50.65" font-family="Sans-Serif" font-size="13.00" fill="#2d3436">Azure Service Bus</text>
</g>
<!-- 33a248f2885c45f893a1bd7f3429cb8b&#45;&gt;b90523e5e68747f0bb610006b53915ea -->
<g id="edge10" class="edge">
<title>33a248f2885c45f893a1bd7f3429cb8b&#45;&gt;b90523e5e68747f0bb610006b53915ea</title>
<path fill="none" stroke="#7b8894" stroke-width="2" d="M987.74,-410.5C790.21,-410.5 78,-410.5 78,-410.5 78,-410.5 78,-199.16 78,-199.16"/>
<polygon fill="#7b8894" stroke="#7b8894" stroke-width="2" points="81.5,-199.16 78,-189.16 74.5,-199.16 81.5,-199.16"/>
<text xml:space="preserve" text-anchor="middle" x="185.62" y="-241.45" font-family="Sans-Serif" font-size="13.00" fill="#2d3436">Processes asynchronous messages</text>
</g>
<!-- bedb4540df294368bb9c52892b370622 -->
<g id="node7" class="node">
<title>bedb4540df294368bb9c52892b370622</title>
<image xlink:href="/Users/kumam/Documents/GitHub/AaaS/webapp/venv/lib/python3.13/site-packages/resources/azure/database/sql-databases.png" width="100.8px" height="100.8px" preserveAspectRatio="xMinYMin meet" x="380.6" y="-168.3"/>
<text xml:space="preserve" text-anchor="middle" x="431" y="-50.65" font-family="Sans-Serif" font-size="13.00" fill="#2d3436">Azure SQL Database</text>
</g>
<!-- 33a248f2885c45f893a1bd7f3429cb8b&#45;&gt;bedb4540df294368bb9c52892b370622 -->
<g id="edge7" class="edge">
<title>33a248f2885c45f893a1bd7f3429cb8b&#45;&gt;bedb4540df294368bb9c52892b370622</title>
<path fill="none" stroke="#7b8894" stroke-width="2" d="M987.81,-376.5C842.38,-376.5 431,-376.5 431,-376.5 431,-376.5 431,-199.21 431,-199.21"/>
<polygon fill="#7b8894" stroke="#7b8894" stroke-width="2" points="434.5,-199.21 431,-189.21 427.5,-199.21 434.5,-199.21"/>
<text xml:space="preserve" text-anchor="middle" x="448.38" y="-241.45" font-family="Sans-Serif" font-size="13.00" fill="#2d3436">Queries transactional data</text>
</g>
<!-- 23a7c2d0df9941f6bb1ed0e453bd1811 -->
<g id="node8" class="node">
<title>23a7c2d0df9941f6bb1ed0e453bd1811</title>
<image xlink:href="/Users/kumam/Documents/GitHub/AaaS/webapp/venv/lib/python3.13/site-packages/resources/azure/database/cosmos-db.png" width="100.8px" height="100.8px" preserveAspectRatio="xMinYMin meet" x="553.6" y="-168.3"/>
<text xml:space="preserve" text-anchor="middle" x="604" y="-50.65" font-family="Sans-Serif" font-size="13.00" fill="#2d3436">Azure Cosmos DB</text>
</g>
<!-- 33a248f2885c45f893a1bd7f3429cb8b&#45;&gt;23a7c2d0df9941f6bb1ed0e453bd1811 -->
<g id="edge8" class="edge">
<title>33a248f2885c45f893a1bd7f3429cb8b&#45;&gt;23a7c2d0df9941f6bb1ed0e453bd1811</title>
<path fill="none" stroke="#7b8894" stroke-width="2" d="M987.79,-341.5C873.55,-341.5 604,-341.5 604,-341.5 604,-341.5 604,-199.23 604,-199.23"/>
<polygon fill="#7b8894" stroke="#7b8894" stroke-width="2" points="607.5,-199.23 604,-189.23 600.5,-199.23 607.5,-199.23"/>
<text xml:space="preserve" text-anchor="middle" x="665.12" y="-241.45" font-family="Sans-Serif" font-size="13.00" fill="#2d3436">Queries NoSQL data</text>
</g>
<!-- 812a6fb663af4d379c950754907989fc -->
<g id="node9" class="node">
<title>812a6fb663af4d379c950754907989fc</title>
<image xlink:href="/Users/kumam/Documents/GitHub/AaaS/webapp/venv/lib/python3.13/site-packages/resources/azure/database/cache-for-redis.png" width="100.8px" height="100.8px" preserveAspectRatio="xMinYMin meet" x="726.6" y="-168.3"/>
<text xml:space="preserve" text-anchor="middle" x="777" y="-50.65" font-family="Sans-Serif" font-size="13.00" fill="#2d3436">Azure Cache for Redis</text>
</g>
<!-- 33a248f2885c45f893a1bd7f3429cb8b&#45;&gt;812a6fb663af4d379c950754907989fc -->
<g id="edge9" class="edge">
<title>33a248f2885c45f893a1bd7f3429cb8b&#45;&gt;812a6fb663af4d379c950754907989fc</title>
<path fill="none" stroke="#7b8894" stroke-width="2" d="M1024.6,-307.89C1024.6,-231.25 1024.6,-117.5 1024.6,-117.5 1024.6,-117.5 840.13,-117.5 840.13,-117.5"/>
<polygon fill="#7b8894" stroke="#7b8894" stroke-width="2" points="840.13,-114 830.13,-117.5 840.13,-121 840.13,-114"/>
<text xml:space="preserve" text-anchor="middle" x="882.12" y="-241.45" font-family="Sans-Serif" font-size="13.00" fill="#2d3436">Caches data and sessions</text>
</g>
<!-- b4e5c2cda4514bd587937d5b9813953b -->
<g id="node10" class="node">
<title>b4e5c2cda4514bd587937d5b9813953b</title>
<image xlink:href="/Users/kumam/Documents/GitHub/AaaS/webapp/venv/lib/python3.13/site-packages/resources/azure/security/key-vaults.png" width="100.8px" height="100.8px" preserveAspectRatio="xMinYMin meet" x="1061.6" y="-168.3"/>
<text xml:space="preserve" text-anchor="middle" x="1112" y="-50.65" font-family="Sans-Serif" font-size="13.00" fill="#2d3436">Azure Key Vault</text>
</g>
<!-- 33a248f2885c45f893a1bd7f3429cb8b&#45;&gt;b4e5c2cda4514bd587937d5b9813953b -->
<g id="edge11" class="edge">
<title>33a248f2885c45f893a1bd7f3429cb8b&#45;&gt;b4e5c2cda4514bd587937d5b9813953b</title>
<path fill="none" stroke="#7b8894" stroke-width="2" d="M1075,-308C1075,-308 1075,-199.06 1075,-199.06"/>
<polygon fill="#7b8894" stroke="#7b8894" stroke-width="2" points="1078.5,-199.06 1075,-189.06 1071.5,-199.06 1078.5,-199.06"/>
<text xml:space="preserve" text-anchor="middle" x="1159.5" y="-241.45" font-family="Sans-Serif" font-size="13.00" fill="#2d3436">Retrieves secrets and connection strings</text>
</g>
<!-- 10f3b120f0b6416bb6a2912545385b83 -->
<g id="node11" class="node">
<title>10f3b120f0b6416bb6a2912545385b83</title>
<image xlink:href="/Users/kumam/Documents/GitHub/AaaS/webapp/venv/lib/python3.13/site-packages/resources/azure/network/firewall.png" width="100.8px" height="100.8px" preserveAspectRatio="xMinYMin meet" x="1234.6" y="-168.3"/>
<text xml:space="preserve" text-anchor="middle" x="1285" y="-50.65" font-family="Sans-Serif" font-size="13.00" fill="#2d3436">Azure Firewall</text>
</g>
<!-- 33a248f2885c45f893a1bd7f3429cb8b&#45;&gt;10f3b120f0b6416bb6a2912545385b83 -->
<g id="edge17" class="edge">
<title>33a248f2885c45f893a1bd7f3429cb8b&#45;&gt;10f3b120f0b6416bb6a2912545385b83</title>
<path fill="none" stroke="#7b8894" stroke-width="2" d="M1088.33,-335.5C1148.62,-335.5 1241.6,-335.5 1241.6,-335.5 1241.6,-335.5 1241.6,-199.18 1241.6,-199.18"/>
<polygon fill="#7b8894" stroke="#7b8894" stroke-width="2" points="1245.1,-199.18 1241.6,-189.18 1238.1,-199.18 1245.1,-199.18"/>
<text xml:space="preserve" text-anchor="middle" x="1427.75" y="-241.45" font-family="Sans-Serif" font-size="13.00" fill="#2d3436">Routes outbound traffic</text>
</g>
<!-- 33a248f2885c45f893a1bd7f3429cb8b&#45;&gt;656a60666d994bac8b336a59964a3482 -->
<g id="edge12" class="edge">
<title>33a248f2885c45f893a1bd7f3429cb8b&#45;&gt;656a60666d994bac8b336a59964a3482</title>
<path fill="none" stroke="#7b8894" stroke-width="2" d="M1088.35,-362.5C1265.27,-362.5 1847.8,-362.5 1847.8,-362.5 1847.8,-362.5 1847.8,-199.06 1847.8,-199.06"/>
<polygon fill="#7b8894" stroke="#7b8894" stroke-width="2" points="1851.3,-199.06 1847.8,-189.06 1844.3,-199.06 1851.3,-199.06"/>
<text xml:space="preserve" text-anchor="middle" x="1657.5" y="-241.45" font-family="Sans-Serif" font-size="13.00" fill="#2d3436">Sends application telemetry</text>
</g>
<!-- 7af281d30bdb43a298920d6de7190722 -->
<g id="node13" class="node">
<title>7af281d30bdb43a298920d6de7190722</title>
<image xlink:href="/Users/kumam/Documents/GitHub/AaaS/webapp/venv/lib/python3.13/site-packages/resources/azure/network/virtual-networks.png" width="100.8px" height="100.8px" preserveAspectRatio="xMinYMin meet" x="2138.6" y="-943.2"/>
<text xml:space="preserve" text-anchor="middle" x="2189" y="-825.55" font-family="Sans-Serif" font-size="13.00" fill="#2d3436">Azure Virtual Network</text>
</g>
</g>
</svg>
